<svg xmlns="http://www.w3.org/2000/svg" width="248" height="248" fill="none"><g clip-path="url(#a)"><path fill="url(#b)" d="M125.43 210.536c1.974 0 3.574 1.583 3.574 3.536 0 1.952-1.6 3.535-3.574 3.535s-3.575-1.583-3.575-3.535 1.601-3.536 3.575-3.536m-3.883-168.883c1.746.145 3.157 1.468 3.393 3.184l4.252 30.891c1.428 10.207 13.737 14.629 21.335 7.693l42.598-38.771a2.55 2.55 0 0 1 3.574.144c.869.932.895 2.358.061 3.32l-37.146 42.848c-6.838 7.874-1.792 20.17 8.632 21.048l32.775 3.159c1.632.157 2.827 1.592 2.667 3.205a2.95 2.95 0 0 1-2.492 2.613l-34.439 5.377c-9.999 1.363-14.528 13.204-8.024 20.897l12.108 14.273a2.694 2.694 0 0 1-.342 3.827 2.774 2.774 0 0 1-3.436.076l-14.925-11.271c-8.054-6.057-19.664-.909-20.515 9.115l-3.289 39.095c-.136 1.615-1.571 2.815-3.205 2.681a2.955 2.955 0 0 1-2.696-2.527l-5.216-37.764c-1.398-10.206-13.707-14.628-21.335-7.693l-45.316 41.262a2.33 2.33 0 0 1-3.263-.131 2.26 2.26 0 0 1-.056-3.031l39.548-45.641c6.838-7.874 1.823-20.17-8.602-21.047l-32.782-3.161c-1.632-.157-2.826-1.592-2.667-3.205a2.95 2.95 0 0 1 2.492-2.613l34.417-5.376c9.999-1.363 14.558-13.204 8.054-20.897l-8.242-9.716a3.34 3.34 0 0 1 .423-4.745 3.44 3.44 0 0 1 4.262-.094l10.121 7.65c8.054 6.057 19.664.91 20.515-9.115l2.723-32.186c.172-2.033 1.979-3.544 4.038-3.374m-87.185 76.854c1.974 0 3.575 1.582 3.575 3.535 0 1.952-1.6 3.535-3.575 3.535-1.974 0-3.574-1.583-3.574-3.535s1.6-3.535 3.574-3.535m179.276-3.59c1.974 0 3.574 1.583 3.574 3.535s-1.6 3.536-3.574 3.536-3.575-1.583-3.575-3.536c0-1.952 1.601-3.535 3.575-3.535M121.03 30.393c1.975 0 3.575 1.583 3.575 3.535s-1.6 3.536-3.575 3.536c-1.974 0-3.574-1.583-3.574-3.535s1.6-3.536 3.574-3.536"/><path fill="url(#c)" d="M123.175 153.643c18.649 0 33.766-14.952 33.766-33.396s-15.117-33.396-33.766-33.396-33.765 14.952-33.765 33.396 15.117 33.396 33.765 33.396"/></g><defs><radialGradient id="c" cx="0" cy="0" r="1" gradientTransform="matrix(18.77064 45.36022 -45.80098 18.95303 115.464 107.918)" gradientUnits="userSpaceOnUse"><stop stop-color="#FFC10B"/><stop offset="1" stop-color="#FB3F2E"/></radialGradient><linearGradient id="b" x1="55.146" x2="162.052" y1="60.172" y2="156.952" gradientUnits="userSpaceOnUse"><stop stop-color="#FFC10B"/><stop offset="1" stop-color="#FB3F2E"/></linearGradient><clipPath id="a"><path fill="#fff" d="M30 30h188v188H30z"/></clipPath></defs></svg>